<?xml version="1.0" encoding="UTF-8"?>
<svg id="Layer_1" data-name="Layer 1" xmlns="http://www.w3.org/2000/svg" viewBox="0 0 754.08 92.35">
  <defs>
    <style>
      .cls-1 {
        fill: #00a0d3;
      }

      .cls-1, .cls-2, .cls-3 {
        fill-rule: evenodd;
      }

      .cls-2 {
        fill: #353188;
      }

      .cls-4 {
        fill: #bbbcbf;
      }

      .cls-3 {
        fill: #e4262d;
      }
    </style>
  </defs>
  <g>
    <polygon class="cls-1" points="48.19 2.58 80.29 2.58 32.09 90.24 0 90.24 48.19 2.58 48.19 2.58"/>
    <polygon class="cls-2" points="80.29 2.58 115.01 2.58 66.71 90.24 32.09 90.24 80.29 2.58 80.29 2.58"/>
    <polygon class="cls-3" points="115.01 2.58 149.53 2.58 101.23 90.24 66.71 90.24 115.01 2.58 115.01 2.58"/>
  </g>
  <g>
    <path class="cls-4" d="m194.59,2.24c23.79,0,28,9.54,17.3,30.12-2.22,4.27-7.83,12.55-15.83,18.19,3.87,2.38,4.38,8.66.33,16.44-7.97,15.56-18.89,23.09-42.68,23.09h-35.05S164.22,2.23,164.22,2.23h30.37Zm-33.28,70.02c6.07,0,9.45-.63,12.48-6.52,3.03-5.9.8-6.78-5.28-6.78h-12.02s-6.95,13.3-6.95,13.3h11.77Zm15.27-31.37c6.07,0,9.49-.75,13.54-8.53,4.05-7.78,1.4-8.53-4.68-8.53h-10.63s-8.87,17.07-8.87,17.07h10.63Z"/>
    <path class="cls-4" d="m266.46,2.24l-11.75,42.92L287.46,2.24h33.28s-45.56,87.84-45.56,87.84h-21.76s30.56-58.73,30.56-58.73l-44.98,58.72h-15.18s16.13-58.73,16.13-58.73l-30.56,58.72h-21.76S233.18,2.24,233.18,2.24h33.28Z"/>
    <path class="cls-4" d="m352.97,31.61c2.99-7.65-.33-9.79-6.53-9.79-4.93,0-9.46,2.89-10.45,5.77-3.34,9.79,37.36,9.54,22.44,38.4-1.92,3.76-17.86,25.97-47.84,25.97-27.08,0-24.2-16.94-18.41-27.98l23.86-4.64c-3.97,9.04-.36,11.04,5.84,11.04,6.2,0,12.63-3.64,13.66-7.03,3.14-10.67-36.9-8.28-21.86-37.14,1.79-3.76,15.58-25.97,43.92-25.97,26.57,0,24.88,15.69,19.21,26.73l-23.86,4.64Z"/>
    <path class="cls-4" d="m456.12,2.25l-11.17,21.58h-38.21s-5.97,11.54-5.97,11.54h27.2s-11.17,21.58-11.17,21.58h-27.2s-6.09,11.54-6.09,11.54h38.21s-11.17,21.58-11.17,21.58h-60.74S395.38,2.25,395.38,2.25h60.74Z"/>
    <path class="cls-4" d="m485.46,90.09h-24.29s.02-27.48.02-27.48h-9.74s-14.32,27.48-14.32,27.48h-22.02S460.67,2.25,460.67,2.25h31.63c22.52,0,26.73,9.54,16.03,30.12-6.22,11.92-12.93,19.7-23.71,25.35l.84,32.37Zm-13.98-66.13l-8.82,16.94h10.38c6.07,0,9.49-.75,13.54-8.53,4.05-7.78,1.4-8.53-4.72-8.41h-10.38Z"/>
    <path class="cls-4" d="m548.22,2.25l-15.56,54.46,40.87-54.46h22.78s-65.81,87.84-65.81,87.84h-30.11s25.06-87.84,25.06-87.84h22.78Z"/>
    <path class="cls-4" d="m620.21,2.26l-45.56,87.84h-21.51S598.7,2.26,598.7,2.26h21.51Z"/>
    <path class="cls-4" d="m620.73,55.21c-5.07,9.66-7.47,15.56,1.9,15.56,9.36,0,12.93-4.89,17.91-13.55l18.66,4.64c-4.35,8.28-17.75,30.49-47.74,30.49-29.99,0-20.25-22.21-15.9-30.49l16.28-31.37C616.06,22.21,629.46,0,659.45,0c29.99,0,20.25,22.21,16.03,30.49l-23.48,4.64c3.97-8.66,5.51-13.55-3.85-13.55s-13.02,5.9-18.09,15.56l-9.33,18.07Z"/>
    <path class="cls-4" d="m754.08,2.26l-11.17,21.58h-38.21s-5.97,11.54-5.97,11.54h27.2s-11.17,21.58-11.17,21.58h-27.2s-6.09,11.54-6.09,11.54h38.21s-11.17,21.58-11.17,21.58h-60.74S693.34,2.26,693.34,2.26h60.74Z"/>
  </g>
</svg>